<svg width="1920" height="1080" viewBox="0 0 1920 1080" fill="none" xmlns="http://www.w3.org/2000/svg">
<g clip-path="url(#clip0_0_3)">
<mask id="path-1-inside-1_0_3" fill="white">
<path d="M-12 0H96V1080H-12V0Z"/>
</mask>
<path d="M95 0V1080H97V0H95Z" fill="white" mask="url(#path-1-inside-1_0_3)"/>
<mask id="path-3-inside-2_0_3" fill="white">
<path d="M96 0H204V1080H96V0Z"/>
</mask>
<path d="M203 0V1080H205V0H203Z" fill="white" mask="url(#path-3-inside-2_0_3)"/>
<mask id="path-5-inside-3_0_3" fill="white">
<path d="M204 0H312V1080H204V0Z"/>
</mask>
<path d="M311 0V1080H313V0H311Z" fill="white" mask="url(#path-5-inside-3_0_3)"/>
<mask id="path-7-inside-4_0_3" fill="white">
<path d="M312 0H420V1080H312V0Z"/>
</mask>
<path d="M419 0V1080H421V0H419Z" fill="white" mask="url(#path-7-inside-4_0_3)"/>
<mask id="path-9-inside-5_0_3" fill="white">
<path d="M420 0H528V1080H420V0Z"/>
</mask>
<path d="M527 0V1080H529V0H527Z" fill="white" mask="url(#path-9-inside-5_0_3)"/>
<mask id="path-11-inside-6_0_3" fill="white">
<path d="M528 0H636V1080H528V0Z"/>
</mask>
<path d="M635 0V1080H637V0H635Z" fill="white" mask="url(#path-11-inside-6_0_3)"/>
<mask id="path-13-inside-7_0_3" fill="white">
<path d="M636 0H744V1080H636V0Z"/>
</mask>
<path d="M743 0V1080H745V0H743Z" fill="white" mask="url(#path-13-inside-7_0_3)"/>
<mask id="path-15-inside-8_0_3" fill="white">
<path d="M744 0H852V1080H744V0Z"/>
</mask>
<path d="M851 0V1080H853V0H851Z" fill="white" mask="url(#path-15-inside-8_0_3)"/>
<mask id="path-17-inside-9_0_3" fill="white">
<path d="M852 0H960V1080H852V0Z"/>
</mask>
<path d="M959 0V1080H961V0H959Z" fill="white" mask="url(#path-17-inside-9_0_3)"/>
<mask id="path-19-inside-10_0_3" fill="white">
<path d="M960 0H1068V1080H960V0Z"/>
</mask>
<path d="M1067 0V1080H1069V0H1067Z" fill="white" mask="url(#path-19-inside-10_0_3)"/>
<mask id="path-21-inside-11_0_3" fill="white">
<path d="M1920 0L1920 108L-4.72083e-06 108L0 -8.39259e-05L1920 0Z"/>
</mask>
<path d="M1920 107L-4.67712e-06 107L-4.76454e-06 109L1920 109L1920 107Z" fill="white" mask="url(#path-21-inside-11_0_3)"/>
<mask id="path-23-inside-12_0_3" fill="white">
<path d="M1920 108L1920 216L-4.72083e-06 216L0 108L1920 108Z"/>
</mask>
<path d="M1920 215L-4.67712e-06 215L-4.76454e-06 217L1920 217L1920 215Z" fill="white" mask="url(#path-23-inside-12_0_3)"/>
<mask id="path-25-inside-13_0_3" fill="white">
<path d="M1920 216L1920 324L-4.72083e-06 324L0 216L1920 216Z"/>
</mask>
<path d="M1920 323L-4.67712e-06 323L-4.76454e-06 325L1920 325L1920 323Z" fill="white" mask="url(#path-25-inside-13_0_3)"/>
<mask id="path-27-inside-14_0_3" fill="white">
<path d="M1920 324L1920 432L-4.72083e-06 432L0 324L1920 324Z"/>
</mask>
<path d="M1920 431L-4.67712e-06 431L-4.76454e-06 433L1920 433L1920 431Z" fill="white" mask="url(#path-27-inside-14_0_3)"/>
<mask id="path-29-inside-15_0_3" fill="white">
<path d="M1920 432L1920 540L-4.72083e-06 540L0 432L1920 432Z"/>
</mask>
<path d="M1920 539L-4.67712e-06 539L-4.76454e-06 541L1920 541L1920 539Z" fill="white" mask="url(#path-29-inside-15_0_3)"/>
<mask id="path-31-inside-16_0_3" fill="white">
<path d="M1920 540L1920 648.001L-4.72083e-06 648L0 540L1920 540Z"/>
</mask>
<path d="M1920 647.001L-4.67712e-06 647L-4.76454e-06 649L1920 649.001L1920 647.001Z" fill="white" mask="url(#path-31-inside-16_0_3)"/>
<mask id="path-33-inside-17_0_3" fill="white">
<path d="M1920 648.001L1920 756.001L-4.72083e-06 756.001L0 648.001L1920 648.001Z"/>
</mask>
<path d="M1920 755.001L-4.67712e-06 755.001L-4.76454e-06 757.001L1920 757.001L1920 755.001Z" fill="white" mask="url(#path-33-inside-17_0_3)"/>
<mask id="path-35-inside-18_0_3" fill="white">
<path d="M1920 756.001L1920 864.001L-4.72083e-06 864.001L0 756.001L1920 756.001Z"/>
</mask>
<path d="M1920 863.001L-4.67712e-06 863.001L-4.76454e-06 865.001L1920 865.001L1920 863.001Z" fill="white" mask="url(#path-35-inside-18_0_3)"/>
<mask id="path-37-inside-19_0_3" fill="white">
<path d="M1920 864.001L1920 972.001L-4.72083e-06 972.001L0 864.001L1920 864.001Z"/>
</mask>
<path d="M1920 971.001L-4.67712e-06 971.001L-4.76454e-06 973.001L1920 973.001L1920 971.001Z" fill="white" mask="url(#path-37-inside-19_0_3)"/>
<mask id="path-39-inside-20_0_3" fill="white">
<path d="M1068 0H1176V1080H1068V0Z"/>
</mask>
<path d="M1175 0V1080H1177V0H1175Z" fill="white" mask="url(#path-39-inside-20_0_3)"/>
<mask id="path-41-inside-21_0_3" fill="white">
<path d="M1176 0H1284V1080H1176V0Z"/>
</mask>
<path d="M1283 0V1080H1285V0H1283Z" fill="white" mask="url(#path-41-inside-21_0_3)"/>
<mask id="path-43-inside-22_0_3" fill="white">
<path d="M1284 0H1392V1080H1284V0Z"/>
</mask>
<path d="M1391 0V1080H1393V0H1391Z" fill="white" mask="url(#path-43-inside-22_0_3)"/>
<mask id="path-45-inside-23_0_3" fill="white">
<path d="M1392 0H1500V1080H1392V0Z"/>
</mask>
<path d="M1499 0V1080H1501V0H1499Z" fill="white" mask="url(#path-45-inside-23_0_3)"/>
<mask id="path-47-inside-24_0_3" fill="white">
<path d="M1500 0H1608V1080H1500V0Z"/>
</mask>
<path d="M1607 0V1080H1609V0H1607Z" fill="white" mask="url(#path-47-inside-24_0_3)"/>
<mask id="path-49-inside-25_0_3" fill="white">
<path d="M1608 0H1716V1080H1608V0Z"/>
</mask>
<path d="M1715 0V1080H1717V0H1715Z" fill="white" mask="url(#path-49-inside-25_0_3)"/>
<mask id="path-51-inside-26_0_3" fill="white">
<path d="M1716 0H1824V1080H1716V0Z"/>
</mask>
<path d="M1823 0V1080H1825V0H1823Z" fill="white" mask="url(#path-51-inside-26_0_3)"/>
<mask id="path-53-inside-27_0_3" fill="white">
<path d="M1824 0H1932V1080H1824V0Z"/>
</mask>
<path d="M1931 0V1080H1933V0H1931Z" fill="white" mask="url(#path-53-inside-27_0_3)"/>
</g>
<defs>
<clipPath id="clip0_0_3">
<rect width="1920" height="1080" fill="white"/>
</clipPath>
</defs>
</svg>
